<mxfile host="Electron" modified="2024-04-05T01:20:12.416Z" agent="Mozilla/5.0 (Windows NT 10.0; Win64; x64) AppleWebKit/537.36 (KHTML, like Gecko) draw.io/24.1.0 Chrome/120.0.6099.109 Electron/28.1.0 Safari/537.36" etag="m_eoQ33AgrW2Dc3nisjH" version="24.1.0" type="device">
  <diagram name="Página-1" id="DsGVFL0r9kAYmhax9mlO">
    <mxGraphModel dx="1420" dy="830" grid="1" gridSize="10" guides="1" tooltips="1" connect="1" arrows="1" fold="1" page="1" pageScale="1" pageWidth="827" pageHeight="1169" background="#CCE5FF" math="0" shadow="0">
      <root>
        <mxCell id="0" />
        <mxCell id="1" parent="0" />
        <mxCell id="OQUOb_ktwe0Ab4qqj7AL-1" value="&lt;font style=&quot;font-size: 16px;&quot; color=&quot;#000000&quot; face=&quot;Comic Sans MS&quot;&gt;&lt;b&gt;4&lt;br&gt;Hacer un programa para que el usuario ingrese un número positivo y luego se muestren por pantalla los números entre el 1 y el número ingresado por el usuario. &lt;br&gt;&lt;br&gt;Ejemplo. Si el usuario ingresa 15, se mostrarán los números entre el 1 y el 15.&lt;/b&gt;&lt;/font&gt;" style="text;whiteSpace=wrap;html=1;fontFamily=Architects Daughter;fontSource=https%3A%2F%2Ffonts.googleapis.com%2Fcss%3Ffamily%3DArchitects%2BDaughter;" vertex="1" parent="1">
          <mxGeometry x="74" y="20" width="680" height="120" as="geometry" />
        </mxCell>
        <mxCell id="OQUOb_ktwe0Ab4qqj7AL-26" value="" style="group;aspect=fixed;" vertex="1" connectable="0" parent="1">
          <mxGeometry x="100" y="160" width="475" height="620" as="geometry" />
        </mxCell>
        <mxCell id="OQUOb_ktwe0Ab4qqj7AL-2" value="" style="group;aspect=fixed;" vertex="1" connectable="0" parent="OQUOb_ktwe0Ab4qqj7AL-26">
          <mxGeometry y="155" width="475" height="380" as="geometry" />
        </mxCell>
        <mxCell id="OQUOb_ktwe0Ab4qqj7AL-3" value="" style="whiteSpace=wrap;html=1;aspect=fixed;rounded=0;labelBackgroundColor=none;strokeColor=#000000;strokeWidth=2;align=center;verticalAlign=middle;fontFamily=Helvetica;fontSize=12;fontColor=default;fillColor=#d5e8d4;" vertex="1" parent="OQUOb_ktwe0Ab4qqj7AL-2">
          <mxGeometry x="95" width="380" height="380" as="geometry" />
        </mxCell>
        <mxCell id="OQUOb_ktwe0Ab4qqj7AL-4" value="" style="group;aspect=fixed;" vertex="1" connectable="0" parent="OQUOb_ktwe0Ab4qqj7AL-2">
          <mxGeometry x="9.500000000000002" y="28.5" width="171" height="171" as="geometry" />
        </mxCell>
        <mxCell id="OQUOb_ktwe0Ab4qqj7AL-5" value="" style="ellipse;whiteSpace=wrap;html=1;aspect=fixed;rounded=0;labelBackgroundColor=none;strokeColor=#0F140C;strokeWidth=3;align=center;verticalAlign=middle;fontFamily=Helvetica;fontSize=12;fontColor=default;fillColor=#d5e8d4;" vertex="1" parent="OQUOb_ktwe0Ab4qqj7AL-4">
          <mxGeometry width="171" height="171" as="geometry" />
        </mxCell>
        <mxCell id="OQUOb_ktwe0Ab4qqj7AL-6" value="" style="endArrow=none;html=1;rounded=0;strokeColor=#0F140C;fontFamily=Helvetica;fontSize=12;fontColor=default;fillColor=#B2C9AB;strokeWidth=2;" edge="1" parent="OQUOb_ktwe0Ab4qqj7AL-4">
          <mxGeometry width="50" height="50" relative="1" as="geometry">
            <mxPoint x="164.16" y="47.879999999999995" as="sourcePoint" />
            <mxPoint x="6.840000000000001" y="47.879999999999995" as="targetPoint" />
          </mxGeometry>
        </mxCell>
        <mxCell id="OQUOb_ktwe0Ab4qqj7AL-7" value="" style="endArrow=none;html=1;rounded=0;strokeColor=#0F140C;fontFamily=Helvetica;fontSize=12;fontColor=default;fillColor=#B2C9AB;exitX=0.264;exitY=0.952;exitDx=0;exitDy=0;exitPerimeter=0;strokeWidth=2;" edge="1" parent="OQUOb_ktwe0Ab4qqj7AL-4" source="OQUOb_ktwe0Ab4qqj7AL-5">
          <mxGeometry width="50" height="50" relative="1" as="geometry">
            <mxPoint x="41.04" y="102.60000000000001" as="sourcePoint" />
            <mxPoint x="47.879999999999995" y="47.879999999999995" as="targetPoint" />
          </mxGeometry>
        </mxCell>
        <mxCell id="OQUOb_ktwe0Ab4qqj7AL-8" value="" style="endArrow=none;html=1;rounded=0;strokeColor=#0F140C;fontFamily=Helvetica;fontSize=12;fontColor=default;fillColor=#B2C9AB;exitX=0.728;exitY=0.948;exitDx=0;exitDy=0;exitPerimeter=0;strokeWidth=2;" edge="1" parent="OQUOb_ktwe0Ab4qqj7AL-4" source="OQUOb_ktwe0Ab4qqj7AL-5">
          <mxGeometry width="50" height="50" relative="1" as="geometry">
            <mxPoint x="102.60000000000001" y="116.28000000000003" as="sourcePoint" />
            <mxPoint x="124.48800000000001" y="47.879999999999995" as="targetPoint" />
          </mxGeometry>
        </mxCell>
        <mxCell id="OQUOb_ktwe0Ab4qqj7AL-18" value="&lt;font face=&quot;Comic Sans MS&quot; color=&quot;#000000&quot;&gt;&lt;span style=&quot;font-size: 18px;&quot;&gt;&lt;b&gt;x&lt;/b&gt;&lt;/span&gt;&lt;/font&gt;" style="text;strokeColor=none;align=center;fillColor=none;html=1;verticalAlign=middle;whiteSpace=wrap;rounded=0;fontFamily=Architects Daughter;fontSource=https%3A%2F%2Ffonts.googleapis.com%2Fcss%3Ffamily%3DArchitects%2BDaughter;" vertex="1" parent="OQUOb_ktwe0Ab4qqj7AL-4">
          <mxGeometry x="55.5" y="6.5" width="60" height="30" as="geometry" />
        </mxCell>
        <mxCell id="OQUOb_ktwe0Ab4qqj7AL-21" value="&lt;font size=&quot;1&quot; face=&quot;Comic Sans MS&quot; color=&quot;#000000&quot;&gt;&lt;b style=&quot;font-size: 16px;&quot;&gt;x++&lt;/b&gt;&lt;/font&gt;" style="text;strokeColor=none;align=center;fillColor=none;html=1;verticalAlign=middle;whiteSpace=wrap;rounded=0;fontFamily=Architects Daughter;fontSource=https://fonts.googleapis.com/css?family=Architects+Daughter;" vertex="1" parent="OQUOb_ktwe0Ab4qqj7AL-4">
          <mxGeometry x="122.5" y="74.5" width="40" height="30" as="geometry" />
        </mxCell>
        <mxCell id="OQUOb_ktwe0Ab4qqj7AL-25" value="" style="group;aspect=fixed;" vertex="1" connectable="0" parent="OQUOb_ktwe0Ab4qqj7AL-2">
          <mxGeometry x="249" y="115" width="130" height="40" as="geometry" />
        </mxCell>
        <mxCell id="OQUOb_ktwe0Ab4qqj7AL-23" value="" style="shape=trapezoid;perimeter=trapezoidPerimeter;whiteSpace=wrap;html=1;fixedSize=1;rounded=0;labelBackgroundColor=none;strokeColor=#0F140C;strokeWidth=2;align=center;verticalAlign=middle;fontFamily=Helvetica;fontSize=12;fontColor=default;fillColor=#d5e8d4;" vertex="1" parent="OQUOb_ktwe0Ab4qqj7AL-25">
          <mxGeometry width="130" height="40" as="geometry" />
        </mxCell>
        <mxCell id="OQUOb_ktwe0Ab4qqj7AL-24" value="&lt;b&gt;&lt;font color=&quot;#000000&quot; style=&quot;font-size: 19px;&quot; face=&quot;Comic Sans MS&quot;&gt;x&lt;/font&gt;&lt;/b&gt;" style="text;strokeColor=none;align=center;fillColor=none;html=1;verticalAlign=middle;whiteSpace=wrap;rounded=0;fontFamily=Architects Daughter;fontSource=https://fonts.googleapis.com/css?family=Architects+Daughter;" vertex="1" parent="OQUOb_ktwe0Ab4qqj7AL-25">
          <mxGeometry x="34" y="3" width="60" height="30" as="geometry" />
        </mxCell>
        <mxCell id="OQUOb_ktwe0Ab4qqj7AL-13" value="" style="group;aspect=fixed;" vertex="1" connectable="0" parent="OQUOb_ktwe0Ab4qqj7AL-26">
          <mxGeometry x="260" width="40" height="40" as="geometry" />
        </mxCell>
        <mxCell id="OQUOb_ktwe0Ab4qqj7AL-10" value="" style="strokeWidth=2;html=1;shape=mxgraph.flowchart.start_2;whiteSpace=wrap;rounded=0;labelBackgroundColor=none;strokeColor=#000000;align=center;verticalAlign=middle;fontFamily=Helvetica;fontSize=12;fontColor=default;fillColor=#d5e8d4;aspect=fixed;" vertex="1" parent="OQUOb_ktwe0Ab4qqj7AL-13">
          <mxGeometry width="40" height="40" as="geometry" />
        </mxCell>
        <mxCell id="OQUOb_ktwe0Ab4qqj7AL-11" value="&lt;b&gt;&lt;font style=&quot;font-size: 17px;&quot; color=&quot;#000000&quot; face=&quot;Comic Sans MS&quot;&gt;I&lt;/font&gt;&lt;/b&gt;" style="text;strokeColor=none;align=center;fillColor=none;html=1;verticalAlign=middle;whiteSpace=wrap;rounded=0;fontFamily=Architects Daughter;fontSource=https%3A%2F%2Ffonts.googleapis.com%2Fcss%3Ffamily%3DArchitects%2BDaughter;aspect=fixed;" vertex="1" parent="OQUOb_ktwe0Ab4qqj7AL-13">
          <mxGeometry y="5" width="40" height="30" as="geometry" />
        </mxCell>
        <mxCell id="OQUOb_ktwe0Ab4qqj7AL-14" value="" style="group;aspect=fixed;" vertex="1" connectable="0" parent="OQUOb_ktwe0Ab4qqj7AL-26">
          <mxGeometry x="260" y="580" width="40" height="40" as="geometry" />
        </mxCell>
        <mxCell id="OQUOb_ktwe0Ab4qqj7AL-9" value="" style="strokeWidth=2;html=1;shape=mxgraph.flowchart.start_2;whiteSpace=wrap;rounded=0;labelBackgroundColor=none;strokeColor=#000000;align=center;verticalAlign=middle;fontFamily=Helvetica;fontSize=12;fontColor=default;fillColor=#d5e8d4;" vertex="1" parent="OQUOb_ktwe0Ab4qqj7AL-14">
          <mxGeometry width="40" height="40" as="geometry" />
        </mxCell>
        <mxCell id="OQUOb_ktwe0Ab4qqj7AL-12" value="&lt;b&gt;&lt;font style=&quot;font-size: 17px;&quot; color=&quot;#000000&quot; face=&quot;Comic Sans MS&quot;&gt;F&lt;/font&gt;&lt;/b&gt;" style="text;strokeColor=none;align=center;fillColor=none;html=1;verticalAlign=middle;whiteSpace=wrap;rounded=0;fontFamily=Architects Daughter;fontSource=https://fonts.googleapis.com/css?family=Architects+Daughter;" vertex="1" parent="OQUOb_ktwe0Ab4qqj7AL-14">
          <mxGeometry y="5" width="40" height="30" as="geometry" />
        </mxCell>
        <mxCell id="OQUOb_ktwe0Ab4qqj7AL-17" value="" style="group;aspect=fixed;" vertex="1" connectable="0" parent="OQUOb_ktwe0Ab4qqj7AL-26">
          <mxGeometry x="220" y="80" width="120" height="40" as="geometry" />
        </mxCell>
        <mxCell id="OQUOb_ktwe0Ab4qqj7AL-15" value="" style="shape=trapezoid;perimeter=trapezoidPerimeter;whiteSpace=wrap;html=1;fixedSize=1;rounded=0;labelBackgroundColor=none;strokeColor=#121211;strokeWidth=2;align=center;verticalAlign=middle;fontFamily=Helvetica;fontSize=12;fontColor=default;fillColor=#d5e8d4;direction=west;container=0;" vertex="1" parent="OQUOb_ktwe0Ab4qqj7AL-17">
          <mxGeometry width="120" height="40" as="geometry">
            <mxRectangle x="-1020" y="-650" width="50" height="40" as="alternateBounds" />
          </mxGeometry>
        </mxCell>
        <mxCell id="OQUOb_ktwe0Ab4qqj7AL-16" value="&lt;font size=&quot;1&quot; face=&quot;Comic Sans MS&quot; color=&quot;#000000&quot;&gt;&lt;b style=&quot;font-size: 17px;&quot;&gt;num&lt;/b&gt;&lt;/font&gt;" style="text;strokeColor=none;align=center;fillColor=none;html=1;verticalAlign=middle;whiteSpace=wrap;rounded=0;fontFamily=Architects Daughter;fontSource=https%3A%2F%2Ffonts.googleapis.com%2Fcss%3Ffamily%3DArchitects%2BDaughter;container=0;" vertex="1" parent="OQUOb_ktwe0Ab4qqj7AL-17">
          <mxGeometry x="30" y="5" width="60" height="30" as="geometry" />
        </mxCell>
        <mxCell id="OQUOb_ktwe0Ab4qqj7AL-19" value="&lt;font face=&quot;Comic Sans MS&quot; color=&quot;#000000&quot;&gt;&lt;span style=&quot;font-size: 14px;&quot;&gt;&lt;b&gt;&amp;nbsp;x = 1&lt;/b&gt;&lt;/span&gt;&lt;/font&gt;" style="text;strokeColor=none;align=center;fillColor=none;html=1;verticalAlign=middle;whiteSpace=wrap;rounded=0;fontFamily=Architects Daughter;fontSource=https://fonts.googleapis.com/css?family=Architects+Daughter;" vertex="1" parent="OQUOb_ktwe0Ab4qqj7AL-26">
          <mxGeometry x="5.5" y="260" width="50" height="30" as="geometry" />
        </mxCell>
        <mxCell id="OQUOb_ktwe0Ab4qqj7AL-20" value="&lt;font size=&quot;1&quot; face=&quot;Comic Sans MS&quot; color=&quot;#000000&quot;&gt;&lt;b style=&quot;font-size: 15px;&quot;&gt;x &amp;lt;= num&lt;/b&gt;&lt;/font&gt;" style="text;strokeColor=none;align=center;fillColor=none;html=1;verticalAlign=middle;whiteSpace=wrap;rounded=0;fontFamily=Architects Daughter;fontSource=https://fonts.googleapis.com/css?family=Architects+Daughter;" vertex="1" parent="OQUOb_ktwe0Ab4qqj7AL-26">
          <mxGeometry x="59" y="258" width="70" height="30" as="geometry" />
        </mxCell>
        <mxCell id="OQUOb_ktwe0Ab4qqj7AL-28" value="" style="line;strokeWidth=2;direction=south;html=1;hachureGap=4;fontFamily=Architects Daughter;fontSource=https://fonts.googleapis.com/css?family=Architects+Daughter;strokeColor=#000000;" vertex="1" parent="OQUOb_ktwe0Ab4qqj7AL-26">
          <mxGeometry x="275" y="40" width="10" height="40" as="geometry" />
        </mxCell>
        <mxCell id="OQUOb_ktwe0Ab4qqj7AL-27" value="" style="line;strokeWidth=2;direction=south;html=1;hachureGap=4;fontFamily=Architects Daughter;fontSource=https://fonts.googleapis.com/css?family=Architects+Daughter;strokeColor=#000000;" vertex="1" parent="OQUOb_ktwe0Ab4qqj7AL-26">
          <mxGeometry x="275" y="120" width="10" height="40" as="geometry" />
        </mxCell>
        <mxCell id="OQUOb_ktwe0Ab4qqj7AL-29" value="" style="line;strokeWidth=2;direction=south;html=1;hachureGap=4;fontFamily=Architects Daughter;fontSource=https://fonts.googleapis.com/css?family=Architects+Daughter;strokeColor=#000000;" vertex="1" parent="OQUOb_ktwe0Ab4qqj7AL-26">
          <mxGeometry x="275" y="535" width="10" height="45" as="geometry" />
        </mxCell>
      </root>
    </mxGraphModel>
  </diagram>
</mxfile>
